<?xml version="1.0" encoding="utf-8"?>
<!-- Generator: Adobe Illustrator 15.0.0, SVG Export Plug-In . SVG Version: 6.00 Build 0)  -->
<!DOCTYPE svg PUBLIC "-//W3C//DTD SVG 1.1//EN" "http://www.w3.org/Graphics/SVG/1.1/DTD/svg11.dtd">
<svg version="1.1" id="Layer_1" xmlns="http://www.w3.org/2000/svg" xmlns:xlink="http://www.w3.org/1999/xlink" x="0px" y="0px"
	 width="24px" height="24px" viewBox="0 0 24 24" enable-background="new 0 0 24 24" xml:space="preserve">
<g>
	<path fill="#FFFFFF" d="M20.699,0h-8.398C10.478,0,9,1.907,9,4.257v3.872h1.8V4.257c0-1.067,0.672-1.936,1.501-1.936h8.398
		c0.828,0,1.5,0.868,1.5,1.936v15.484c0,1.071-0.672,1.937-1.5,1.937h-8.398c-0.829,0-1.501-0.863-1.501-1.937V15.87H9v3.871
		C9,22.096,10.478,24,12.301,24h8.398C22.521,24,24,22.096,24,19.741V4.257C24,1.907,22.521,0,20.699,0z"/>
	<path fill="#FFFFFF" d="M11.133,15.869l1.641,1.643l4.692-4.691c0.452-0.452,0.452-1.187,0-1.64l-4.692-4.692L11.133,8.13
		l2.71,2.709H0v2.321h13.843L11.133,15.869z"/>
</g>
</svg>
